# xmcd
#
# Track frame offsets: 
#        150
#        20612
#        32606
#        50587
#        73697
#        91476
#        107263
#        124886
#        142480
#        176184
#        200885
#        212740
#
# Disc length: 3082 seconds
#
# Revision: 0
# Processed by: cddbd v1.5.2PL0 Copyright (c) Steve Scherf et al.
# Submitted via: ExactAudioCopyFreeDBPlugin 1.0
#
DISCID=bc0c080c
DTITLE=Chris Finnen - Ali Kat Guitar Boogie Shuffle
DYEAR=2014
DGENRE=Blues
TTITLE0=Zing It Up And Down (TeleKat)
TTITLE1=Ali Kat Guitar Boogie Shuffle
TTITLE2=Don't Send Me An Email
TTITLE3=Hellers Party
TTITLE4=Keep Your Own Warm
TTITLE5=Only A Bird
TTITLE6=PMT
TTITLE7=South Australia Outback Blues
TTITLE8=All My Friends Are Going Down
TTITLE9=Cannon In D
TTITLE10=Ali Kat Guitar Boogie Shuffle (Instrumental)
TTITLE11=Weeping Spell Telekat (Live)
EXTD=
EXTT0=
EXTT1=
EXTT2=
EXTT3=
EXTT4=
EXTT5=
EXTT6=
EXTT7=
EXTT8=
EXTT9=
EXTT10=
EXTT11=
PLAYORDER=
